<svg width="549" height="333" viewBox="0 0 549 333" fill="none" xmlns="http://www.w3.org/2000/svg">
<path d="M270.159 153.234C271.816 144.123 370.935 47.2817 420.287 0H548.672V326.14C532.935 338.564 509.673 331.317 500.01 326.14C451.141 282.24 390.606 289.212 366.448 298.185C358.993 286.589 313.644 245.036 291.902 225.709C256.285 196.719 262.567 165.313 270.159 153.234Z" fill="url(#paint0_linear)"/>
<path d="M305.654 133.878C307.101 125.918 393.705 41.3093 436.826 0H549V284.944C535.25 295.799 514.926 289.467 506.482 284.944C463.784 246.59 410.893 252.68 389.785 260.52C383.271 250.389 343.649 214.085 324.651 197.199C293.532 171.871 299.02 144.432 305.654 133.878Z" fill="url(#paint1_linear)"/>
<path d="M0.5 216V126.5C25.3 135.3 31.1667 159.833 31 171C29 193.4 9.83333 210.333 0.5 216Z" fill="#0097A4" stroke="#0097A4"/>
<defs>
<linearGradient id="paint0_linear" x1="406.473" y1="0" x2="406.473" y2="333" gradientUnits="userSpaceOnUse">
<stop stop-color="#006073"/>
<stop offset="0.401087" stop-color="#13AFB2"/>
<stop offset="1" stop-color="#35DCD2"/>
</linearGradient>
<linearGradient id="paint1_linear" x1="424.756" y1="0" x2="424.756" y2="290.937" gradientUnits="userSpaceOnUse">
<stop stop-color="#006F86"/>
<stop offset="0.53125" stop-color="#13AFB2"/>
<stop offset="1" stop-color="#2FD5CD"/>
</linearGradient>
</defs>
</svg>
