<svg width="1355" height="864" viewBox="0 0 1355 864" fill="none" xmlns="http://www.w3.org/2000/svg">
<path d="M659.676 382.177C663.807 359.453 911.017 117.924 1034.11 0H1354.31V813.417C1315.06 844.404 1257.04 826.328 1232.94 813.417C1111.06 703.928 960.08 721.316 899.827 743.695C881.235 714.774 768.131 611.139 713.904 562.936C625.073 490.632 640.739 412.303 659.676 382.177Z" fill="url(#paint0_linear)"/>
<path d="M746.949 333.903C750.559 314.049 966.554 103.029 1074.1 0H1353.87V710.671C1319.58 737.744 1268.89 721.952 1247.83 710.671C1141.34 615.012 1009.42 630.203 956.777 649.756C940.532 624.488 841.71 533.943 794.329 491.829C716.715 428.659 730.403 360.224 746.949 333.903Z" fill="url(#paint1_linear)"/>
<path d="M0 863.5C781.2 863.5 1020.17 287.833 1042 0H1354V863.5H0Z" fill="url(#paint2_linear)"/>
<path d="M205 863C867.924 863 1070.71 355.667 1089.24 102H1354V863H205Z" fill="url(#paint3_linear)"/>
<defs>
<linearGradient id="paint0_linear" x1="999.654" y1="0" x2="999.654" y2="830.527" gradientUnits="userSpaceOnUse">
<stop stop-color="#006073"/>
<stop offset="0.401087" stop-color="#13AFB2"/>
<stop offset="1" stop-color="#35DCD2"/>
</linearGradient>
<linearGradient id="paint1_linear" x1="1044" y1="0" x2="1044" y2="725.62" gradientUnits="userSpaceOnUse">
<stop stop-color="#006F86"/>
<stop offset="0.53125" stop-color="#13AFB2"/>
<stop offset="1" stop-color="#2FD5CD"/>
</linearGradient>
<linearGradient id="paint2_linear" x1="677" y1="0" x2="677" y2="863.5" gradientUnits="userSpaceOnUse">
<stop stop-color="#2ED3CC"/>
<stop offset="1" stop-color="#0B95A0"/>
</linearGradient>
<linearGradient id="paint3_linear" x1="779.5" y1="102" x2="779.5" y2="863" gradientUnits="userSpaceOnUse">
<stop stop-color="#2BCFC9"/>
<stop offset="0.729021" stop-color="#18ACB2"/>
<stop offset="1" stop-color="#28DDDA"/>
</linearGradient>
</defs>
</svg>
